<svg width="23" height="21" viewBox="0 0 23 21" fill="none" xmlns="http://www.w3.org/2000/svg">
<path d="M3.0481 15.7074C3.0481 17.0459 4.1573 18.1351 5.52091 18.1351C6.88452 18.1351 7.99372 17.0459 7.99372 15.7074C7.99372 14.369 6.88452 13.2798 5.52091 13.2798C4.1573 13.2798 3.0481 14.3687 3.0481 15.7074ZM7.18092 15.7074C7.18092 16.6059 6.43612 17.3371 5.52091 17.3371C4.60569 17.3371 3.8609 16.6059 3.8609 15.7074C3.8609 14.8089 4.60569 14.0777 5.52091 14.0777C6.43612 14.0777 7.18092 14.8089 7.18092 15.7074Z" fill="#B7B7B7"/>
<path d="M22.5551 6.64132C22.3877 6.49476 22.1311 6.50886 21.9813 6.67324L16.0785 13.1641L13.0397 10.1808C12.8809 10.0249 12.6238 10.0249 12.465 10.1808C12.3063 10.3366 12.3063 10.5891 12.465 10.7449L15.8081 14.0267C15.8845 14.1017 15.9877 14.1434 16.0955 14.1434C16.0993 14.1434 16.1031 14.1434 16.1069 14.1432C16.2185 14.14 16.3242 14.0921 16.3987 14.0102L22.5879 7.20441C22.7372 7.0403 22.7226 6.78788 22.5551 6.64132Z" fill="#B7B7B7"/>
<path d="M16.2356 15.1413C16.011 15.1413 15.8292 15.32 15.8292 15.5403V19.5106H1.43878V0.891704H15.8292V9.25081C15.8292 9.47104 16.011 9.64979 16.2356 9.64979C16.4602 9.64979 16.642 9.47104 16.642 9.25081V0.492727C16.642 0.272492 16.4602 0.09375 16.2356 0.09375H1.03238C0.807773 0.09375 0.625977 0.272492 0.625977 0.492727V19.9096C0.625977 20.1299 0.807773 20.3086 1.03238 20.3086H16.2356C16.4602 20.3086 16.642 20.1299 16.642 19.9096V15.5403C16.642 15.32 16.4602 15.1413 16.2356 15.1413Z" fill="#B7B7B7"/>
<path d="M11.4851 5.47325C11.7097 5.47325 11.8915 5.29451 11.8915 5.07427C11.8915 4.85403 11.7097 4.67529 11.4851 4.67529H3.32022C3.09561 4.67529 2.91382 4.85403 2.91382 5.07427C2.91382 5.29451 3.09561 5.47325 3.32022 5.47325H11.4851Z" fill="#B7B7B7"/>
<path d="M11.9914 8.62359C11.9914 8.40335 11.8096 8.22461 11.585 8.22461H3.42227C3.19767 8.22461 3.01587 8.40335 3.01587 8.62359C3.01587 8.84382 3.19767 9.02256 3.42227 9.02256H11.585C11.8096 9.02256 11.9914 8.84382 11.9914 8.62359Z" fill="#B7B7B7"/>
</svg>
