<svg width="26" height="25" viewBox="0 0 26 25" fill="none" xmlns="http://www.w3.org/2000/svg">
<path d="M13.259 4.87626C9.71943 4.85151 6.84814 7.72279 6.84814 11.2624C6.84814 12.4505 7.16993 13.6139 7.78874 14.6287C7.78874 14.6535 7.81349 14.6535 7.81349 14.6782L12.8382 23.0693C12.9125 23.1683 13.0115 23.2426 13.16 23.2426C13.2838 23.2426 13.4075 23.1683 13.4818 23.0693L18.7046 14.6782C18.7046 14.6535 18.7293 14.6287 18.7293 14.6287C20.5858 11.6089 19.6452 7.67329 16.6254 5.81685C15.6105 5.19804 14.4472 4.87626 13.259 4.87626ZM18.061 14.2822C18.061 14.307 18.0363 14.3317 18.0363 14.3317L13.16 22.1535L8.48181 14.3565C8.48181 14.3317 8.45706 14.307 8.45706 14.2822C6.79864 11.6337 7.59072 8.14358 10.2392 6.48517C12.8877 4.82675 16.3778 5.61883 18.061 8.26735C19.1996 10.099 19.1996 12.4505 18.061 14.2822Z" fill="#24FF00"/>
<path d="M13.259 8.93567C11.9718 8.93567 10.9075 9.97527 10.9075 11.2872C10.9075 12.599 11.9471 13.6386 13.259 13.6386C14.5708 13.6386 15.6104 12.599 15.6104 11.2872C15.5857 9.97527 14.5461 8.93567 13.259 8.93567ZM13.259 12.8713C12.3679 12.8713 11.65 12.1535 11.6748 11.2624C11.6748 10.3713 12.3926 9.65349 13.2837 9.67824C14.1748 9.67824 14.8679 10.3961 14.8679 11.2624C14.8431 12.1535 14.1253 12.8713 13.259 12.8713Z" fill="#24FF00"/>
<path d="M21.6747 7.77228C20.8827 5.91584 19.4965 4.38119 17.7391 3.39109C17.5658 3.29208 17.3431 3.36633 17.2441 3.5396C17.145 3.71287 17.2193 3.93564 17.3926 4.03465C18.9767 4.95049 20.2639 6.36138 20.9817 8.04455C21.0312 8.19307 21.1797 8.26733 21.3282 8.26733C21.3777 8.26733 21.4272 8.26732 21.4767 8.24257C21.6747 8.16831 21.749 7.94554 21.6747 7.77228Z" fill="#24FF00"/>
<path d="M13.259 2.9703C13.457 2.9703 13.6303 2.79703 13.6303 2.59901C13.6303 2.40099 13.457 2.22772 13.259 2.22772C8.2095 2.22772 4.10059 6.33663 4.10059 11.3861C4.10059 11.5842 4.27385 11.7574 4.47187 11.7574C4.66989 11.7574 4.84316 11.5842 4.84316 11.3861C4.84316 6.73267 8.60554 2.9703 13.259 2.9703Z" fill="#24FF00"/>
</svg>
