<svg width="16" height="23" viewBox="0 0 16 23" fill="none" xmlns="http://www.w3.org/2000/svg">
<path d="M9.92091 16.5397L14.1222 10.5944C14.1362 10.5748 14.148 10.554 14.1575 10.5324C14.8826 9.48804 15.2681 8.28907 15.2722 7.06573C15.2763 5.8424 14.8989 4.64146 14.1808 3.59334C13.4627 2.54523 12.4315 1.69001 11.1992 1.12058C9.96684 0.551146 8.58048 0.289263 7.19066 0.363372C5.39336 0.468329 3.69531 1.12528 2.3937 2.21926C1.09209 3.31323 0.26983 4.77454 0.0708167 6.34744C-0.107445 7.81381 0.274477 9.29062 1.15645 10.5453C1.16564 10.5641 1.17646 10.5823 1.18881 10.5996L5.21652 16.5216C1.98023 16.881 0.0090332 17.9847 0.0090332 19.4504C0.0090332 21.1874 3.36301 22.5522 7.65845 22.5522C11.9539 22.5522 15.3079 21.19 15.3079 19.4504C15.2814 18.0261 13.1925 16.9042 9.92091 16.5397ZM1.94787 10.1938C1.14149 9.07313 0.79001 7.74588 0.950499 6.42757C1.1265 5.03739 1.85333 3.74586 3.0038 2.77901C4.15426 1.81216 5.65509 1.23157 7.24361 1.13885C8.47909 1.0722 9.71157 1.30602 10.8057 1.81461C11.8998 2.3232 12.8132 3.08689 13.4456 4.02179C14.0779 4.95669 14.4048 6.02663 14.3903 7.11408C14.3757 8.20154 14.0203 9.26444 13.3631 10.186C13.3492 10.2057 13.3374 10.2265 13.3278 10.2481L7.54076 18.4293L1.98905 10.2713C1.97879 10.2442 1.96497 10.2181 1.94787 10.1938ZM7.64374 21.7742C3.6631 21.7742 0.876947 20.5489 0.876947 19.4478C0.876947 18.4138 2.85697 17.5013 5.69608 17.248L7.14064 19.3702C7.17937 19.4271 7.23405 19.4743 7.29946 19.5074C7.36488 19.5404 7.43884 19.5582 7.51429 19.5589C7.59011 19.5606 7.66513 19.545 7.73213 19.5138C7.79912 19.4825 7.85582 19.4367 7.89676 19.3806L9.39133 17.2713C12.2981 17.5298 14.3929 18.4345 14.3929 19.4529C14.3988 20.5489 11.6244 21.7742 7.64374 21.7742Z" fill="#A4A2A2"/>
<path d="M10.5652 6.92628C10.5652 6.44264 10.402 5.96987 10.0961 5.56773C9.79032 5.1656 9.35564 4.85218 8.84708 4.6671C8.33851 4.48202 7.7789 4.43359 7.23901 4.52794C6.69912 4.6223 6.2032 4.85519 5.81396 5.19718C5.42472 5.53916 5.15965 5.97488 5.05226 6.44922C4.94487 6.92357 4.99998 7.41524 5.21064 7.86207C5.42129 8.30889 5.77803 8.6908 6.23572 8.9595C6.69342 9.22819 7.23152 9.37161 7.78199 9.37161C8.5199 9.37092 9.22737 9.11307 9.74916 8.65463C10.2709 8.1962 10.5644 7.57461 10.5652 6.92628ZM5.88141 6.92628C5.88141 6.59602 5.99287 6.27317 6.20171 5.99856C6.41055 5.72396 6.70738 5.50993 7.05467 5.38354C7.40195 5.25715 7.7841 5.22409 8.15278 5.28852C8.52145 5.35295 8.86011 5.51199 9.12591 5.74552C9.39171 5.97905 9.57272 6.27659 9.64606 6.60051C9.71939 6.92443 9.68175 7.26018 9.5379 7.56531C9.39405 7.87043 9.15045 8.13123 8.8379 8.31471C8.52535 8.4982 8.15789 8.59614 7.78199 8.59614C7.27867 8.59477 6.79646 8.41832 6.44083 8.10538C6.08521 7.79245 5.88512 7.3685 5.88435 6.92628H5.88141Z" fill="#A4A2A2"/>
</svg>
